<svg 
    width="54" 
    height="54" 
    viewBox="0 0 54 54" 
    fill="none" 
    xmlns="http://www.w3.org/2000/svg"
>
    <path d="M10.1228 6.35215C20.5975 -2.23185 36.0775 -1.63451 
    45.8562 8.14415C56.2695 18.5575 56.2695 35.4428 45.8562 
    45.8562C35.4428 56.2695 18.5575 56.2695 8.14416 45.8562C4.94851 
    42.6649 2.61636 38.7137 1.36672 34.3738C0.117077 30.0339 
    -0.00905797 25.4475 1.00016 21.0455L1.20549 20.2108L6.36283 
    21.5708C5.08428 26.4302 5.56201 31.5849 7.71183 36.1265C9.86166 
    40.6681 13.5456 44.3052 18.1144 46.3966C22.6832 48.4881 27.8436 
    48.8997 32.6862 47.559C37.5287 46.2183 41.7427 43.2113 44.5853 
    39.0679C47.4279 34.9246 48.7168 29.9108 48.2248 24.9102C47.7328 
    19.9096 45.4915 15.2431 41.8958 11.7332C38.3002 8.22333 33.581 
    6.09526 28.57 5.72406C23.559 5.35286 18.5777 6.76236 14.5042 
    9.70415L13.9148 10.1468L16.6268 12.8588L4.37083 15.6855L7.19749 
    3.42949L10.1202 6.35215H10.1228ZM29.6668 
    11.0002V16.3335H36.3335V21.6668H21.6668C21.3336 
    21.6662 21.0123 21.7904 20.7661 22.0148C20.5198 22.2393 20.3666 
    22.5479 20.3365 22.8797C20.3064 23.2115 20.4016 23.5426 20.6034 
    23.8077C20.8052 24.0728 21.099 24.2528 21.4268 24.3122L21.6668 
    24.3335H32.3335C34.1016 24.3335 35.7973 25.0359 37.0475 
    26.2861C38.2978 27.5364 39.0002 29.232 39.0002 31.0002C39.0002 
    32.7683 38.2978 34.464 37.0475 35.7142C35.7973 36.9644 34.1016 
    37.6668 32.3335 
    37.6668H29.6668V43.0002H24.3335V37.6668H17.6668V32.3335H32.3335C32.6667 
    32.3341 32.988 32.2099 33.2342 31.9855C33.4805 31.761 33.6337 
    31.4525 33.6638 31.1206C33.6939 30.7888 33.5987 30.4577 33.3969 
    30.1926C33.1951 29.9275 32.9014 29.7475 32.5735 29.6882L32.3335 
    29.6668H21.6668C19.8987 29.6668 18.203 28.9644 16.9528 27.7142C15.7025 
    26.464 15.0002 24.7683 15.0002 23.0002C15.0002 21.232 15.7025 19.5364 
    16.9528 18.2861C18.203 17.0359 19.8987 16.3335 21.6668 
    16.3335H24.3335V11.0002H29.6668Z" 
    fill="#ADFFE1" />
</svg>
