<svg 
    width="49" 
    height="41" 
    viewBox="0 0 49 41" 
    fill="none" 
    xmlns="http://www.w3.org/2000/svg"
>
    <path d="M46 34.1111C46 35.1425 45.5882 36.1317 44.8551 
        36.861C44.122 37.5903 43.1277 38 42.0909 
        38H6.90909C5.87234 38 4.87804 37.5903 4.14495 
        36.861C3.41185 36.1317 3 35.1425 3 34.1111V12.7222C3 
        11.6908 3.41185 10.7017 4.14495 9.97236C4.87804 
        9.24305 5.87234 8.83333 6.90909 8.83333H14.7273L18.6364 
        3H30.3636L34.2727 8.83333H42.0909C43.1277 8.83333 
        44.122 9.24305 44.8551 9.97236C45.5882 10.7017 46 
        11.6908 46 12.7222V34.1111Z" 
        stroke="#ADFFE1" 
        stroke-width="5" 
        stroke-linecap="round" 
        stroke-linejoin="round" />
    <path d="M24.5 30C28.6421 30 32 26.6421 32 22.5C32 
        18.3579 28.6421 15 24.5 15C20.3579 15 17 
        18.3579 17 22.5C17 26.6421 20.3579 30 24.5 30Z" 
        stroke="#ADFFE1" 
        stroke-width="5" 
        stroke-linecap="round" 
        stroke-linejoin="round" />
</svg>
