<svg 
    width="58" 
    height="49" 
    viewBox="0 0 58 49" 
    fill="none" xmlns="http://www.w3.org/2000/svg"
>
    <path d="M56 5L47 12L56 19V5Z" 
        stroke="#ADFFE1" 
        stroke-width="4" 
        stroke-linecap="round" 
        stroke-linejoin="round" />
    <path d="M44.2 2H28.8C27.2536 2 26 3.27919 26 4.85714V19.1429C26 
        20.7208 27.2536 22 28.8 22H44.2C45.7464 22 47 20.7208 47 
        19.1429V4.85714C47 3.27919 45.7464 2 44.2 2Z" 
        stroke="#ADFFE1" 
        stroke-width="4" 
        stroke-linecap="round" 
        stroke-linejoin="round"/>
    <path d="M46.9986 35.6911V42.4655C47.0012 43.0943 46.8721 
        43.7168 46.6196 44.293C46.3672 44.8693 45.997 45.3865 
        45.5326 45.8117C45.0683 46.2368 44.5201 46.5605 
        43.9232 46.762C43.3263 46.9634 42.6937 47.0383 
        42.0662 46.9817C35.1038 46.2266 28.416 43.8523 22.54 
        40.0493C17.0732 36.5823 12.4383 31.9566 8.96451 
        26.5007C5.14069 20.6097 2.76104 13.9027 2.01836 
        6.92289C1.96182 6.29845 2.03618 5.6691 2.23671 
        5.07491C2.43723 4.48072 2.75952 3.93471 3.18307 
        3.47165C3.60661 3.00858 4.12213 2.63861 4.6968 
        2.38528C5.27146 2.13194 5.89269 2.00081 6.52091 
        2.00022H13.3087C14.4067 1.98943 15.4712 2.3775 
        16.3038 3.09209C17.1364 3.80667 17.6802 4.79902 
        17.8339 5.88416C18.1203 8.05209 18.6517 10.1807 
        19.4177 12.2294C19.7221 13.0377 19.788 13.916 
        19.6075 14.7605C19.4271 15.605 19.0078 16.3801 
        18.3995 16.994L15.526 19.8618C18.7469 25.5151 23.437 
        30.1959 29.1015 33.4105L31.975 30.5427C32.5902 29.9355 
        33.3669 29.5171 34.213 29.337C35.0591 29.157 35.9392 
        29.2227 36.7491 29.5265C38.8019 30.291 40.9347 30.8213 
        43.107 31.1072C44.206 31.2619 45.2098 31.8144 45.9273 
        32.6596C46.6449 33.5048 47.0261 34.5837 46.9986 35.6911Z" 
        stroke="#ADFFE1" 
        stroke-width="4" 
        stroke-linecap="round" 
        stroke-linejoin="round" />
</svg>
