<svg 
    width="36" 
    height="53" 
    viewBox="0 0 36 53" 
    fill="none" 
    xmlns="http://www.w3.org/2000/svg"
>
    <path d="M18 3C16.1435 3 14.363 3.67729 13.0503 4.88288C11.7375 
        6.08848 11 7.72361 11 9.42857V26.5714C11 28.2764 11.7375 
        29.9115 13.0503 31.1171C14.363 32.3227 16.1435 33 18 
        33C19.8565 33 21.637 32.3227 22.9497 31.1171C24.2625 
        29.9115 25 28.2764 25 26.5714V9.42857C25 7.72361 24.2625 
        6.08848 22.9497 4.88288C21.637 3.67729 19.8565 3 18 3V3Z" 
        stroke="#ADFFE1" 
        stroke-width="5" 
        stroke-linecap="round" 
        stroke-linejoin="round" />
    <path d="M33 22V26.4444C33 30.57 31.4196 34.5267 28.6066 
        37.4439C25.7936 40.3611 21.9782 42 18 42C14.0218 42 
        10.2064 40.3611 7.3934 37.4439C4.58035 34.5267 3 
        30.57 3 26.4444V22" 
        stroke="#ADFFE1" 
        stroke-width="5" 
        stroke-linecap="round" 
        stroke-linejoin="round" />
    <path d="M18 42V50" 
        stroke="#ADFFE1" 
        stroke-width="5" 
        stroke-linecap="round" 
        stroke-linejoin="round" />
    <path d="M9 50H27" 
        stroke="#ADFFE1" 
        stroke-width="5" 
        stroke-linecap="round" 
        stroke-linejoin="round" />
</svg>
