<svg width="246" height="53" viewBox="0 0 246 53" fill="none" xmlns="http://www.w3.org/2000/svg">
<path d="M7.265 53C6.055 53 4.9 52.8533 3.8 52.56C2.66333 52.2667 1.71 51.8267 0.94 51.24L2.645 47.17C3.745 48.0867 5.175 48.545 6.935 48.545C8.32833 48.545 9.39167 48.105 10.125 47.225C10.895 46.3817 11.28 45.1167 11.28 43.43V12.85H16.56V43.32C16.56 46.29 15.7533 48.6367 14.14 50.36C12.5633 52.12 10.2717 53 7.265 53ZM13.92 7.24C12.8933 7.24 12.0317 6.91 11.335 6.25C10.675 5.59 10.345 4.78333 10.345 3.83C10.345 2.84 10.675 2.015 11.335 1.355C12.0317 0.694999 12.8933 0.364998 13.92 0.364998C14.9467 0.364998 15.79 0.694999 16.45 1.355C17.1467 1.97833 17.495 2.76666 17.495 3.72C17.495 4.71 17.165 5.55333 16.505 6.25C15.845 6.91 14.9833 7.24 13.92 7.24ZM36.1499 42.33C33.6565 42.33 31.4565 41.8717 29.5499 40.955C27.6799 40.0383 26.2132 38.645 25.1499 36.775C24.1232 34.8683 23.6099 32.485 23.6099 29.625V12.85H28.8899V29.02C28.8899 31.88 29.5682 34.025 30.9249 35.455C32.3182 36.885 34.2615 37.6 36.7549 37.6C38.5882 37.6 40.1832 37.2333 41.5399 36.5C42.8966 35.73 43.9416 34.63 44.6749 33.2C45.4082 31.7333 45.7749 29.9733 45.7749 27.92V12.85H51.0549V42H46.0499V34.135L46.8749 36.225C45.9215 38.1683 44.4916 39.6717 42.5849 40.735C40.6782 41.7983 38.5332 42.33 36.1499 42.33ZM66.7166 42.33C64.2966 42.33 61.9866 42 59.7866 41.34C57.6232 40.68 55.9182 39.8733 54.6716 38.92L56.8716 34.74C58.1182 35.5833 59.6582 36.2983 61.4916 36.885C63.3249 37.4717 65.1949 37.765 67.1016 37.765C69.5582 37.765 71.3182 37.4167 72.3816 36.72C73.4816 36.0233 74.0316 35.0517 74.0316 33.805C74.0316 32.8883 73.7016 32.1733 73.0416 31.66C72.3816 31.1467 71.5016 30.7617 70.4016 30.505C69.3382 30.2483 68.1466 30.0283 66.8266 29.845C65.5066 29.625 64.1866 29.3683 62.8666 29.075C61.5466 28.745 60.3366 28.305 59.2366 27.755C58.1366 27.1683 57.2566 26.38 56.5966 25.39C55.9366 24.3633 55.6066 23.0067 55.6066 21.32C55.6066 19.56 56.1016 18.02 57.0916 16.7C58.0816 15.38 59.4749 14.3717 61.2716 13.675C63.1049 12.9417 65.2682 12.575 67.7616 12.575C69.6682 12.575 71.5932 12.8133 73.5366 13.29C75.5166 13.73 77.1299 14.3717 78.3766 15.215L76.1216 19.395C74.8016 18.515 73.4266 17.91 71.9966 17.58C70.5666 17.25 69.1366 17.085 67.7066 17.085C65.3966 17.085 63.6732 17.47 62.5366 18.24C61.3999 18.9733 60.8316 19.9267 60.8316 21.1C60.8316 22.09 61.1616 22.86 61.8216 23.41C62.5182 23.9233 63.3982 24.3267 64.4616 24.62C65.5616 24.9133 66.7716 25.17 68.0916 25.39C69.4116 25.5733 70.7316 25.83 72.0516 26.16C73.3716 26.4533 74.5632 26.875 75.6266 27.425C76.7266 27.975 77.6066 28.745 78.2666 29.735C78.9632 30.725 79.3116 32.045 79.3116 33.695C79.3116 35.455 78.7982 36.9767 77.7716 38.26C76.7449 39.5433 75.2966 40.5517 73.4266 41.285C71.5566 41.9817 69.3199 42.33 66.7166 42.33ZM93.1703 42.33C90.2369 42.33 87.9636 41.5417 86.3503 39.965C84.7369 38.3883 83.9303 36.1333 83.9303 33.2V6.47H89.2103V32.98C89.2103 34.5567 89.5953 35.7667 90.3653 36.61C91.1719 37.4533 92.3086 37.875 93.7753 37.875C95.4253 37.875 96.8003 37.4167 97.9003 36.5L99.5503 40.295C98.7436 40.9917 97.7719 41.505 96.6353 41.835C95.5353 42.165 94.3803 42.33 93.1703 42.33ZM78.9803 17.195V12.85H97.5703V17.195H78.9803ZM118.639 42.33C116.145 42.33 113.89 41.78 111.874 40.68C109.894 39.5433 108.317 37.875 107.144 35.675C106.007 33.475 105.439 30.725 105.439 27.425C105.439 24.125 106.025 21.375 107.199 19.175C108.409 16.975 110.004 15.325 111.984 14.225C114 13.125 116.219 12.575 118.639 12.575C121.499 12.575 124.029 13.1983 126.229 14.445C128.429 15.6917 130.17 17.4333 131.454 19.67C132.737 21.87 133.379 24.455 133.379 27.425C133.379 30.395 132.737 32.9983 131.454 35.235C130.17 37.4717 128.429 39.2133 126.229 40.46C124.029 41.7067 121.499 42.33 118.639 42.33ZM103.184 42V1.19H108.464V20.605L107.914 27.37L108.244 34.135V42H103.184ZM118.199 37.71C120.069 37.71 121.737 37.2883 123.204 36.445C124.707 35.6017 125.88 34.41 126.724 32.87C127.604 31.2933 128.044 29.4783 128.044 27.425C128.044 25.335 127.604 23.5383 126.724 22.035C125.88 20.495 124.707 19.3033 123.204 18.46C121.737 17.6167 120.069 17.195 118.199 17.195C116.365 17.195 114.697 17.6167 113.194 18.46C111.727 19.3033 110.554 20.495 109.674 22.035C108.83 23.5383 108.409 25.335 108.409 27.425C108.409 29.4783 108.83 31.2933 109.674 32.87C110.554 34.41 111.727 35.6017 113.194 36.445C114.697 37.2883 116.365 37.71 118.199 37.71ZM137.924 42V1.19H143.204V42H137.924ZM168.63 42V35.84L168.355 34.685V24.18C168.355 21.9433 167.695 20.22 166.375 19.01C165.092 17.7633 163.149 17.14 160.545 17.14C158.822 17.14 157.135 17.4333 155.485 18.02C153.835 18.57 152.442 19.3217 151.305 20.275L149.105 16.315C150.609 15.105 152.405 14.1883 154.495 13.565C156.622 12.905 158.84 12.575 161.15 12.575C165.147 12.575 168.227 13.5467 170.39 15.49C172.554 17.4333 173.635 20.4033 173.635 24.4V42H168.63ZM159.06 42.33C156.897 42.33 154.99 41.9633 153.34 41.23C151.727 40.4967 150.48 39.4883 149.6 38.205C148.72 36.885 148.28 35.4 148.28 33.75C148.28 32.1733 148.647 30.7433 149.38 29.46C150.15 28.1767 151.379 27.15 153.065 26.38C154.789 25.61 157.099 25.225 159.995 25.225H169.235V29.02H160.215C157.575 29.02 155.797 29.46 154.88 30.34C153.964 31.22 153.505 32.2833 153.505 33.53C153.505 34.96 154.074 36.115 155.21 36.995C156.347 37.8383 157.924 38.26 159.94 38.26C161.92 38.26 163.644 37.82 165.11 36.94C166.614 36.06 167.695 34.7767 168.355 33.09L169.4 36.72C168.704 38.4433 167.475 39.8183 165.715 40.845C163.955 41.835 161.737 42.33 159.06 42.33ZM193.361 42.33C190.391 42.33 187.733 41.6883 185.386 40.405C183.076 39.1217 181.261 37.3617 179.941 35.125C178.621 32.8883 177.961 30.3217 177.961 27.425C177.961 24.5283 178.621 21.9617 179.941 19.725C181.261 17.4883 183.076 15.7467 185.386 14.5C187.733 13.2167 190.391 12.575 193.361 12.575C196.001 12.575 198.348 13.1067 200.401 14.17C202.491 15.1967 204.105 16.7367 205.241 18.79L201.226 21.375C200.273 19.945 199.1 18.9 197.706 18.24C196.35 17.5433 194.883 17.195 193.306 17.195C191.4 17.195 189.695 17.6167 188.191 18.46C186.688 19.3033 185.496 20.495 184.616 22.035C183.736 23.5383 183.296 25.335 183.296 27.425C183.296 29.515 183.736 31.33 184.616 32.87C185.496 34.41 186.688 35.6017 188.191 36.445C189.695 37.2883 191.4 37.71 193.306 37.71C194.883 37.71 196.35 37.38 197.706 36.72C199.1 36.0233 200.273 34.96 201.226 33.53L205.241 36.06C204.105 38.0767 202.491 39.635 200.401 40.735C198.348 41.7983 196.001 42.33 193.361 42.33ZM213.241 34.96L213.351 28.195L230.126 12.85H236.506L223.636 25.5L220.776 27.92L213.241 34.96ZM208.951 42V1.19H214.231V42H208.951ZM231.226 42L219.786 27.81L223.196 23.575L237.716 42H231.226ZM241.895 42.33C240.868 42.33 239.988 41.9817 239.255 41.285C238.522 40.5517 238.155 39.635 238.155 38.535C238.155 37.435 238.522 36.5367 239.255 35.84C239.988 35.1433 240.868 34.795 241.895 34.795C242.885 34.795 243.728 35.1433 244.425 35.84C245.158 36.5367 245.525 37.435 245.525 38.535C245.525 39.635 245.158 40.5517 244.425 41.285C243.728 41.9817 242.885 42.33 241.895 42.33Z" fill="black"/>
</svg>
