<svg width="191" height="62" viewBox="0 0 191 62" fill="none" xmlns="http://www.w3.org/2000/svg">
<path d="M82.7665 61.1055H67.2942L76.9717 1.08789H92.4432L82.7665 61.1055Z" fill="#00579F"/>
<path d="M138.855 2.55519C135.803 1.34082 130.963 0 124.978 0C109.698 0 98.9385 8.17219 98.8725 19.856C98.7456 28.4762 106.576 33.2641 112.433 36.1384C118.419 39.0755 120.454 40.9925 120.454 43.6105C120.393 47.6312 115.616 49.4846 111.162 49.4846C104.985 49.4846 101.675 48.5291 96.6448 46.2921L94.6074 45.3332L92.4423 58.8058C96.0711 60.464 102.757 61.9355 109.698 62C125.933 62 136.502 53.9543 136.627 41.5034C136.689 34.6711 132.554 29.436 123.64 25.1581C118.228 22.412 114.914 20.5603 114.914 17.7505C114.978 15.1962 117.717 12.5799 123.826 12.5799C128.856 12.4518 132.552 13.6644 135.351 14.878L136.751 15.5153L138.855 2.55519Z" fill="#00579F"/>
<path d="M159.419 39.8434C160.693 36.3955 165.596 23.051 165.596 23.051C165.532 23.1791 166.868 19.5394 167.632 17.305L168.713 22.4765C168.713 22.4765 171.643 36.8427 172.28 39.8434C169.862 39.8434 162.475 39.8434 159.419 39.8434ZM178.518 1.08789H166.55C162.859 1.08789 160.055 2.17242 158.463 6.06758L135.481 61.1047H151.716C151.716 61.1047 154.388 53.6971 154.963 52.1017C156.744 52.1017 172.537 52.1017 174.828 52.1017C175.272 54.2088 176.674 61.1047 176.674 61.1047H191L178.518 1.08789Z" fill="#00579F"/>
<path d="M54.3711 1.08789L39.2186 42.0142L37.5628 33.7138C34.7614 24.1363 25.9757 13.7306 16.1713 8.55658L30.0504 61.0419H46.412L70.7318 1.08789H54.3711Z" fill="#00579F"/>
<path d="M25.1482 1.08789H0.25467L0 2.30056C19.4185 7.2811 32.2789 19.2865 37.5627 33.7164L32.1512 6.13292C31.2603 2.29972 28.5223 1.21433 25.1482 1.08789Z" fill="#FAA61A"/>
</svg>
